<?xml version="1.0" standalone="no"?><!DOCTYPE svg PUBLIC "-//W3C//DTD SVG 1.1//EN" "http://www.w3.org/Graphics/SVG/1.1/DTD/svg11.dtd"><svg t="1496224944763" class="icon" style="" viewBox="0 0 1024 1024" version="1.1" xmlns="http://www.w3.org/2000/svg" p-id="5855" xmlns:xlink="http://www.w3.org/1999/xlink" width="200" height="200"><defs><style type="text/css"></style></defs><path d="M484.80308 402.222781l17.764596 15.165398-269.334191 229.977835c-6.211469 5.300726-13.650905 7.623631-20.865213 7.059789-7.193843-0.562818-14.172791-4.01136-19.48375-10.233062-10.621918-12.44238-9.250688-29.727045 3.192715-40.358173l287.702538-245.665119c5.157463-4.41045 12.105712-6.723122 19.11536-6.600325-0.603751 0-1.197268 0.030699-1.801019 0.071631-7.193843 0.562818-14.172791 4.01136-19.48375 10.222829C470.988446 374.306988 472.359676 391.600863 484.80308 402.222781z" p-id="5856"></path><path d="M520.946254 401.690662l-18.378579 15.697517-17.764596-15.165398c-12.443403-10.621918-13.814634-27.915793-3.192715-40.359196 5.310959-6.211469 12.289907-9.660011 19.48375-10.222829 0.603751-0.040932 1.197268-0.071631 1.801019-0.071631 0.38988 0 0.778736 0.010233 1.167592 0.030699 7.397481 0.399089 14.766308 3.50994 20.077268 9.741875C534.760888 373.774869 531.834232 392.399041 520.946254 401.690662z" p-id="5857"></path><path d="M812.864814 644.725884c-5.309936 6.221702-12.678764 9.342786-20.077268 9.741875-7.407714 0.400113-14.83794-1.913583-20.280906-6.569626l-269.937942-230.509954 18.378579-15.697517c10.887978-9.29162 13.814634-27.915793 3.192715-40.348963-5.310959-6.231935-12.679787-9.342786-20.077268-9.741875-0.388856-0.020466-0.777713-0.030699-1.167592-0.030699 6.641257-0.081864 13.374612 2.261507 19.075451 7.132444L809.671075 604.377944C820.560076 613.668541 823.485709 632.292714 812.864814 644.725884z" p-id="5858"></path></svg>