<?xml version="1.0" standalone="no"?><!DOCTYPE svg PUBLIC "-//W3C//DTD SVG 1.1//EN" "http://www.w3.org/Graphics/SVG/1.1/DTD/svg11.dtd"><svg t="1496221906798" class="icon" style="" viewBox="0 0 1024 1024" version="1.1" xmlns="http://www.w3.org/2000/svg" p-id="3726" xmlns:xlink="http://www.w3.org/1999/xlink" width="200" height="200"><defs><style type="text/css"></style></defs><path d="M581.573 214.921c0-39.319-31.769-71.211-70.933-71.211-39.164 0-70.902 31.893-70.902 71.211 0 39.35 31.738 71.211 70.902 71.211C549.804 286.132 581.573 254.27 581.573 214.921z" p-id="3727"></path><path d="M510.64 711.855c0 0 260.284-258.127 260.283-483.991C770.923 2 510.64 2 510.64 2S250.357 2 250.357 227.864C250.357 453.728 510.64 711.855 510.64 711.855zM328.314 196.957c1.696-7.518 4.531-14.635 7.396-21.754 1.017-2.496 1.572-5.084 2.712-7.548 3.052-6.563 7.026-12.634 11-18.736 1.971-3.02 3.545-6.193 5.701-9.12 3.173-4.191 6.963-7.89 10.538-11.802 4.098-4.529 8.011-9.152 12.664-13.312 1.972-1.757 4.283-3.175 6.348-4.839 6.903-5.638 14.02-11.03 21.938-15.684 0.278-0.185 0.555-0.277 0.833-0.431 19.135-11.186 40.951-19.568 65.324-23.82 12.172-2.188 24.774-3.359 37.686-3.359 0.062 0 0.124-0.03 0.186-0.03 0.031 0 0.062 0 0.092 0 13.126 0 25.882 1.264 38.241 3.512 6.717 1.204 12.817 3.36 19.165 5.178 5.425 1.509 11.063 2.681 16.27 4.653 5.302 2.002 10.048 4.684 15.069 7.087 5.978 2.835 12.019 5.516 17.595 8.875 2.465 1.572 4.622 3.39 7.025 5.023 35.097 23.696 60.425 57.591 68.961 96.971 2.313 9.952 3.513 19.997 3.511 30.042 0 161.34-185.929 387.204-185.929 387.204S324.74 389.203 324.74 227.863C324.74 217.479 326.004 207.125 328.314 196.957z" p-id="3728"></path><path d="M983.908 475.238c-3.943-19.723-118.326 7.885-165.654 23.663 0 0-21.847 63.229 0 70.994 26.592 9.43 94.66-23.663 94.66-23.663l0 307.611c0 0-240.564 98.573-260.284 94.63-19.72-3.945-260.282-106.462-283.947-94.63C345.017 865.676 108.4 924.808 108.4 924.808L108.4 617.226c0 0 109.513-26.84 118.325-47.329 10.6-24.807 7.889-82.828-70.995-47.329-78.884 35.497-118.325 70.993-118.325 70.993l0 378.578c0 0 23.665 63.105 70.995 47.329 47.33-15.777 260.283-94.659 260.283-94.659s252.395 90.714 283.947 94.659c31.554 3.943 330.292-87.511 331.278-118.324C987.143 797.239 987.821 494.958 983.908 475.238z" p-id="3729"></path></svg>