<?xml version="1.0" standalone="no"?><!DOCTYPE svg PUBLIC "-//W3C//DTD SVG 1.1//EN" "http://www.w3.org/Graphics/SVG/1.1/DTD/svg11.dtd"><svg t="1496221860808" class="icon" style="" viewBox="0 0 1024 1024" version="1.1" xmlns="http://www.w3.org/2000/svg" p-id="2387" xmlns:xlink="http://www.w3.org/1999/xlink" width="200" height="200"><defs><style type="text/css"></style></defs><path d="M1158.337631 510.125479" p-id="2388"></path><path d="M501.049441 535.08535c145.059116 0 263.078287-116.274526 263.078287-259.188118 0-142.918705-118.019171-259.193231-263.078287-259.193231-145.06832 0-263.087491 116.274526-263.087491 259.193231C237.96195 418.811846 355.981121 535.08535 501.049441 535.08535zM287.859194 275.898254c0-115.411408 95.635361-209.306214 213.19127-209.306214 117.550796 0 213.181043 93.894807 213.181043 209.306214s-95.630247 209.306214-213.181043 209.306214C383.493532 485.203446 287.859194 391.308639 287.859194 275.898254z" p-id="2389"></path><path d="M610.084612 563.275779 411.81486 563.275779c-183.377892 0-332.565455 146.891709-332.565455 327.441967l0 19.537769c0 93.290419 146.759787 93.290419 332.565455 93.290419l198.269752 0c178.469162 0 332.604316 0 332.604316-93.290419l0-19.537769C942.688928 710.167487 793.482957 563.275779 610.084612 563.275779zM411.81486 613.161773l198.269752 0c155.890025 0 282.717299 124.511989 282.717299 277.554951l0 19.537769c0 27.502184-46.25967 43.422833-282.717299 43.422833L411.81486 953.677325c-191.533543 0-282.683551-6.503045-282.683551-43.422833l0-19.537769C129.131309 737.674785 255.944265 613.161773 411.81486 613.161773z" p-id="2390"></path></svg>