<?xml version="1.0" standalone="no"?><!DOCTYPE svg PUBLIC "-//W3C//DTD SVG 1.1//EN" "http://www.w3.org/Graphics/SVG/1.1/DTD/svg11.dtd"><svg t="1496221889393" class="icon" style="" viewBox="0 0 1024 1024" version="1.1" xmlns="http://www.w3.org/2000/svg" p-id="3055" xmlns:xlink="http://www.w3.org/1999/xlink" width="200" height="200"><defs><style type="text/css"></style></defs><path d="M878.08 670.72c-69.12-56.32-174.08-92.16-202.24-58.88-25.6 30.72-48.64 53.76-76.8 51.2-97.28-12.8-168.96-102.4-199.68-148.48-66.56-99.84-51.2-125.44-23.04-140.8 51.2-28.16 76.8-110.08 23.04-171.52C348.16 140.8 256-38.4 135.68 56.32 23.04 145.92-5.12 256 61.44 412.16c64 148.48 391.68 565.76 691.2 583.68 156.16 7.68 245.76-140.8 248.32-184.32C1000.96 773.12 944.64 721.92 878.08 670.72L878.08 670.72zM926.72 811.52c-15.36 30.72-28.16 51.2-58.88 74.24-23.04 17.92-61.44 43.52-110.08 40.96C481.28 908.8 199.68 540.16 135.68 414.72c-30.72-64-48.64-145.92-40.96-189.44 12.8-56.32 38.4-87.04 79.36-117.76 56.32-40.96 112.64 40.96 168.96 130.56 20.48 33.28 35.84 64-12.8 94.72-40.96 25.6-51.2 87.04-17.92 156.16 46.08 97.28 189.44 248.32 291.84 245.76 56.32-2.56 89.6-46.08 104.96-61.44 20.48-20.48 76.8 12.8 117.76 43.52C875.52 750.08 934.4 798.72 926.72 811.52L926.72 811.52zM926.72 811.52" p-id="3056"></path></svg>